{"title":"Marathi - Youth - Badal Ghadvaychi Taakad 2016 Cam [Saket]","uid":15533888,"size":840077312,"categoryP":"video","categoryS":"movies","magnet":"?xt=urn:btih:9d9b124f4855cecce7d42c54e5ababf4b8968f77&amp;dn=Marathi+-+Youth+-+Badal+Ghadvaychi+Taakad+2016+Cam+%5BSaket%5D&amp;tr=udp%3A%2F%2Ftracker.leechers-paradise.org%3A6969&amp;tr=udp%3A%2F%2Fzer0day.ch%3A1337&amp;tr=udp%3A%2F%2Fopen.demonii.com%3A1337&amp;tr=udp%3A%2F%2Ftracker.coppersurfer.tk%3A6969&amp;tr=udp%3A%2F%2Fexodus.desync.com%3A6969","seeders":6,"leechers":4,"uploader":"Manoj_vb","files":5,"time":1470860348,"description":"http://i1306.photobucket.com/albums/s570/zyx55e/44_zpsc46e809d.gif\r\n \nhttps://s25.postimg.org/s64vpqhhb/maxresdefault.jpg\r\n \nhttps://s25.postimg.org/lfjt2k4xr/vlcsnap_0043_05_17_14h50m15s226.png\r\n \nhttps://s25.postimg.org/h7p0tt3i7/vlcsnap_1076_09_30_14h43m06s706.png\r\n \nhttps://s25.postimg.org/3s204cv0f/vlcsnap_2200_02_26_09h47m03s551.png\r\n \nhttps://s25.postimg.org/8f8264idb/vlcsnap_2548_06_19_11h27m03s791.png\r\n \nhttps://s25.postimg.org/8ghzzjk73/vlcsnap_5630_01_19_14h05m59s647.png\r\n \nhttps://s25.postimg.org/72qd48kxr/vlcsnap_6083_03_14_05h16m17s347.png\r\n \nhttps://s25.postimg.org/pjpd8sq9r/vlcsnap_6352_09_20_12h35m27s153.png\r\n \nhttps://s25.postimg.org/vlwzzaepr/vlcsnap_9243_10_19_11h00m02s359.png\r\n \nhttps://s25.postimg.org/7w7kalgcf/vlcsnap_9568_04_22_19h24m30s927.png\r\n \nhttps://s25.postimg.org/lr5ut2arj/vlcsnap_9891_12_25_06h13m07s607.png\r\n \nhttp://i1306.photobucket.com/albums/s570/zyx55e/oie_11162011MOJeDGQI_zpsc25b2b81.gif\r\n\r\nGeneral\r\nFormat                      : MPEG-PS\r\nFile size                   : 801 MiB\r\nDuration                    : 1h 56mn\r\nOverall bit rate mode       : Variable\r\nOverall bit rate            : 964 Kbps\r\n\r\nVideo\r\nFormat                      : MPEG Video\r\nFormat version              : Version 2\r\nFormat profile              :   \r\nFormat settings, BVOP       : Yes\r\nFormat settings, Matrix     : Default\r\nFormat settings, GOP        : M=3, N=12\r\nDuration                    : 1h 56mn\r\nBit rate mode               : Variable\r\nBit rate                    : 753 Kbps\r\nMaximum bit rate            : 9 608 Kbps\r\nWidth                       : 352 pixels\r\nHeight                      : 288 pixels\r\nDisplay aspect ratio        : 16:9\r\nFrame rate                  : 25.000 fps\r\nStandard                    : PAL\r\nColor space                 : YUV\r\nChroma subsampling          : 4:2:0\r\nBit depth                   : 8 bits\r\nScan type                   : Progressive\r\nCompression mode            : Lossy\r\nBits/(Pixel*Frame)          : 0.297\r\nTime code of first frame    : 00:00:00:00\r\nTime code source            : Group of pictures header\r\nGOP, Open/Closed            : Closed\r\nStream size                 : 626 MiB (78%)\r\n\r\nAudio\r\nFormat                      : AC-3\r\nFormat/Info                 : Audio Coding 3\r\nMode extension              : CM (complete main)\r\nFormat settings, Endianness : Big\r\nMuxing mode                 : DVD-Video\r\nDuration                    : 1h 56mn\r\nBit rate mode               : Constant\r\nBit rate                    : 192 Kbps\r\nChannel(s)                  : 2 channels\r\nChannel positions           : Front: L R\r\nSampling rate               : 48.0 KHz\r\nFrame rate                  : 31.250 fps (1536 spf)\r\nCompression mode            : Lossy\r\nStream size                 : 160 MiB (20%)\r\n\r\nUploaded &amp; Provided by SaketSaket\r\n\r\nSeeding 24x7... Extreme Seeding...\r\n\r\n \nhttp://i1306.photobucket.com/albums/s570/zyx55e/oie_1117625zVIGKvnK_zpsc8b6e055.gif","torrent":{"xt":"urn:btih:9d9b124f4855cecce7d42c54e5ababf4b8968f77","amp;dn":"Marathi+-+Youth+-+Badal+Ghadvaychi+Taakad+2016+Cam+%5BSaket%5D","amp;tr":["udp%3A%2F%2Ftracker.leechers-paradise.org%3A6969","udp%3A%2F%2Fzer0day.ch%3A1337","udp%3A%2F%2Fopen.demonii.com%3A1337","udp%3A%2F%2Ftracker.coppersurfer.tk%3A6969","udp%3A%2F%2Fexodus.desync.com%3A6969"],"infoHash":"9d9b124f4855cecce7d42c54e5ababf4b8968f77","infoHashBuffer":{"type":"Buffer","data":[157,155,18,79,72,85,206,204,231,212,44,84,229,171,171,244,184,150,143,119]},"announce":[],"urlList":[]}}